<?xml version="1.0" encoding="utf-8"?>
<!-- Generator: Adobe Illustrator 17.0.0, SVG Export Plug-In . SVG Version: 6.00 Build 0)  -->
<!DOCTYPE svg PUBLIC "-//W3C//DTD SVG 1.1//EN" "http://www.w3.org/Graphics/SVG/1.1/DTD/svg11.dtd">
<svg version="1.1" id="Camada_1" xmlns="http://www.w3.org/2000/svg" xmlns:xlink="http://www.w3.org/1999/xlink" x="0px" y="0px"
	 width="37px" height="37px" viewBox="0 0 37 37" enable-background="new 0 0 37 37" xml:space="preserve">
<g>
	<g>
		<path fill="#B6D26E" d="M19.956,17.412c-0.038-3.572,3.952-4.13,3.923-6.833c-0.014-1.316-1.152-2.313-2.703-2.298
			c-1.48,0.016-2.668,1.015-2.668,1.015l-1.286-1.607c0,0,1.535-1.521,4.096-1.547c2.655-0.028,4.929,1.641,4.956,4.248
			c0.041,3.878-4.114,4.32-4.084,7.14l0.01,0.964l-2.232,0.023L19.956,17.412z M19.945,20.797l2.326-0.024l0.024,2.279l-2.326,0.024
			L19.945,20.797z"/>
	</g>
	<g>
		<path fill="#B6D26E" d="M17.117,19.603c0,3.572-3.995,4.089-3.995,6.791c0,1.316,1.128,2.326,2.679,2.326
			c1.48,0,2.679-0.986,2.679-0.986l1.269,1.621c0,0-1.551,1.504-4.112,1.504c-2.655,0-4.911-1.691-4.911-4.3
			c0-3.878,4.159-4.277,4.16-7.097v-0.964h2.232V19.603z M17.164,16.219h-2.326V13.94h2.326V16.219z"/>
	</g>
</g>
</svg>
