<?xml version="1.0" encoding="utf-8"?>
<!-- Generator: Adobe Illustrator 17.0.0, SVG Export Plug-In . SVG Version: 6.00 Build 0)  -->
<!DOCTYPE svg PUBLIC "-//W3C//DTD SVG 1.1//EN" "http://www.w3.org/Graphics/SVG/1.1/DTD/svg11.dtd">
<svg version="1.1" id="Camada_1" xmlns="http://www.w3.org/2000/svg" xmlns:xlink="http://www.w3.org/1999/xlink" x="0px" y="0px"
	 width="37.833px" height="37px" viewBox="0 0 37.833 37" enable-background="new 0 0 37.833 37" xml:space="preserve">
<g>
	<path fill="#D3DD68" d="M9.441,18.188v-3.765c1.297-1.469,2.999-2.203,5.105-2.203c0.734,0,1.502,0.104,2.305,0.312
		c0.801,0.209,1.956,0.637,3.461,1.286c0.844,0.367,1.478,0.603,1.9,0.707c0.422,0.104,0.848,0.155,1.276,0.155
		c0.795,0,1.619-0.238,2.47-0.716c0.851-0.478,1.606-1.077,2.268-1.8v3.894c-0.783,0.734-1.576,1.267-2.378,1.598
		c-0.802,0.33-1.705,0.495-2.708,0.495c-0.734,0-1.432-0.082-2.093-0.248c-0.661-0.165-1.72-0.575-3.177-1.229
		c-1.457-0.655-2.669-0.982-3.636-0.982c-0.783,0-1.521,0.168-2.212,0.505C11.329,16.533,10.469,17.196,9.441,18.188z M9.441,24.835
		v-3.765c1.297-1.469,2.999-2.203,5.105-2.203c0.734,0,1.502,0.104,2.305,0.312c0.801,0.209,1.956,0.637,3.461,1.286
		c0.844,0.354,1.478,0.587,1.9,0.697s0.848,0.165,1.276,0.165c0.795,0,1.619-0.238,2.47-0.716c0.851-0.478,1.606-1.077,2.268-1.8
		v3.894c-0.783,0.734-1.576,1.267-2.378,1.598c-0.802,0.33-1.705,0.495-2.708,0.495c-0.734,0-1.432-0.085-2.093-0.257
		c-0.661-0.171-1.72-0.581-3.177-1.23c-1.457-0.648-2.669-0.973-3.636-0.973c-0.783,0-1.521,0.168-2.212,0.505
		C11.329,23.18,10.469,23.843,9.441,24.835z"/>
</g>
</svg>
